<?xml version="1.0" encoding="UTF-8"?>
<svg xmlns="http://www.w3.org/2000/svg" xmlns:xlink="http://www.w3.org/1999/xlink" width="48px" height="48px" viewBox="0 0 48 48" version="1.1">
<g id="surface1">
<path style=" stroke:none;fill-rule:nonzero;fill:rgb(23.137255%,53.333336%,76.47059%);fill-opacity:1;" d="M 48 42.667969 C 48 45.613281 45.613281 48 42.667969 48 L 5.332031 48 C 2.386719 48 0 45.613281 0 42.667969 L 0 5.332031 C 0 2.386719 2.386719 0 5.332031 0 L 42.667969 0 C 45.613281 0 48 2.386719 48 5.332031 Z M 48 42.667969 "/>
<path style=" stroke:none;fill-rule:nonzero;fill:rgb(100%,100%,100%);fill-opacity:1;" d="M 19.664062 12.167969 C 20.367188 10.265625 21.976562 8.734375 24.085938 8.734375 C 26.277344 8.734375 27.808594 10.183594 28.507812 12.167969 L 36.613281 34.65625 C 36.859375 35.316406 36.941406 35.898438 36.941406 36.183594 C 36.941406 37.796875 35.621094 38.914062 34.089844 38.914062 C 32.351562 38.914062 31.484375 38.003906 31.070312 36.765625 L 29.832031 32.878906 L 18.335938 32.878906 L 17.097656 36.722656 C 16.683594 38.003906 15.816406 38.914062 14.121094 38.914062 C 12.46875 38.914062 11.0625 37.671875 11.0625 36.019531 C 11.0625 35.359375 11.269531 34.863281 11.351562 34.65625 Z M 20.117188 27.175781 L 27.96875 27.175781 L 24.125 15.183594 L 24.042969 15.183594 Z M 20.117188 27.175781 "/>
</g>
</svg>
